Delivery			
version=1			
nRows=217			
nColumns=4			
inDegrees=yes			
endheader			
time	Pelvis_T_up	Head_rotation	Head_flexion_extension
0	0.1	-0.401	-0.347
0.1	0.098	-0.42	-0.388
0.2	0.095	-0.439	-0.43
0.3	0.093	-0.449	-0.454
0.4	0.091	-0.448	-0.455
0.5	0.088	-0.448	-0.456
0.6	0.086	-0.425	-0.436
0.7	0.083	-0.402	-0.416
0.8	0.081	-0.41	-0.189
0.9	0.079	-0.43	0.171
1	0.077	-0.444	0.543
1.1	0.075	-0.443	0.951
1.2	0.073	-0.443	1.359
1.3	0.071	-0.442	2.233
1.4	0.069	-0.441	3.361
1.5	0.067	-0.441	5.116
1.6	0.065	-0.44	7.228
1.7	0.063	-0.439	9.139
1.8	0.061	-0.439	10.931
1.9	0.06	-0.438	12.089
2	0.058	-0.437	13.23
2.1	0.056	-0.436	14.16
2.2	0.053	-0.471	14.75
2.3	0.052	-0.532	14.836
2.4	0.05	-0.682	14.068
2.5	0.047	-1.357	13.97
2.6	0.045	-0.593	12.597
2.7	0.043	-0.862	10.33
2.8	0.041	-1.944	8.322
2.9	0.039	-2.954	6.727
3	0.036	-3.629	5.549
3.1	0.034	-4.364	4.536
3.2	0.031	-5.17	2.908
3.3	0.029	-5.854	2.583
3.4	0.027	-6.395	1.254
3.5	0.025	-6.739	0.501
3.6	0.022	-6.996	-0.524
3.7	0.02	-7.282	-1.304
3.8	0.018	-7.583	-2.402
3.9	0.016	-7.871	-3.443
4	0.014	-8.15	-4.179
4.1	0.012	-8.4	-4.857
4.2	0.01	-8.587	-5.8
4.3	0.009	-9.213	-7.109
4.4	0.008	-10.024	-8.72
4.5	0.007	-11.316	-10.501
4.6	0.006	-13.283	-12.145
4.7	0.005	-15.474	-13.84
4.8	0.004	-17.851	-15.55
4.9	0.003	-20.508	-16.123
5	0.002	-22.852	-17.014
5.1	0.002	-26.469	-17.378
5.2	0.001	-29.353	-17.659
5.3	0.001	-31.265	-17.958
5.4	0.001	-33.195	-18.416
5.5	0.001	-34.405	-18.316
5.6	0	-35.373	-18.471
5.7	0	-36.273	-18.599
5.8	-0.001	-37.08	-18.6
5.9	-0.001	-37.788	-18.576
6	-0.002	-38.516	-18.577
6.1	-0.003	-39.546	-18.748
6.2	-0.003	-41.111	-18.542
6.3	-0.005	-42.297	-18.755
6.4	-0.006	-43.77	-18.913
6.5	-0.007	-45.87	-18.862
6.6	-0.008	-48.383	-18.996
6.7	-0.009	-49.677	-19.104
6.8	-0.01	-51.404	-19.464
6.9	-0.01	-52.815	-19.782
7	-0.01	-53.788	-19.987
7.1	-0.01	-54.382	-20.116
7.2	-0.01	-54.574	-20.117
7.3	-0.01	-54.718	-20.089
7.4	-0.01	-54.602	-20.027
7.5	-0.01	-54.439	-19.924
7.6	-0.01	-54.208	-19.724
7.7	-0.009	-54.182	-19.453
7.8	-0.009	-54.402	-19.35
7.9	-0.01	-54.69	-19.236
8	-0.01	-55.079	-19.368
8.1	-0.011	-55.796	-19.373
8.2	-0.011	-56.726	-19.704
8.3	-0.012	-57.772	-20.269
8.4	-0.012	-58.86	-20.749
8.5	-0.013	-60.098	-21.315
8.6	-0.013	-61.341	-21.017
8.7	-0.013	-62.585	-21.305
8.8	-0.013	-63.693	-21.684
8.9	-0.013	-64.715	-21.895
9	-0.013	-65.664	-21.917
9.1	-0.013	-66.749	-21.937
9.2	-0.013	-67.727	-21.796
9.3	-0.013	-68.548	-21.571
9.4	-0.012	-69.272	-21.088
9.5	-0.012	-69.822	-20.898
9.6	-0.012	-69.88	-20.827
9.7	-0.012	-70.209	-20.523
9.8	-0.012	-70.796	-20.27
9.9	-0.012	-71.789	-20.091
10	-0.012	-73.27	-19.958
10.1	-0.013	-74.924	-19.704
10.2	-0.013	-76.469	-19.452
10.3	-0.014	-77.601	-19.848
10.4	-0.015	-78.856	-20.043
10.5	-0.015	-80.089	-20.119
10.6	-0.016	-80.972	-20.256
10.7	-0.016	-82.425	-20.433
10.8	-0.016	-84.037	-20.419
10.9	-0.016	-85.622	-20.629
11	-0.016	-87.045	-20.606
11.1	-0.016	-88.217	-20.719
11.2	-0.016	-89.223	-20.901
11.3	-0.016	-89.795	-20.814
11.4	-0.015	-90.334	-20.194
11.5	-0.014	-90.751	-19.768
11.6	-0.014	-91.172	-19.677
11.7	-0.014	-91.599	-19.25
11.8	-0.014	-92.026	-18.785
11.9	-0.014	-92.727	-18.398
12	-0.014	-93.817	-17.963
12.1	-0.015	-94.715	-17.753
12.2	-0.016	-94.253	-17.864
12.3	-0.017	-94.649	-17.973
12.4	-0.018	-93.948	-17.008
12.5	-0.019	-92.968	-14.847
12.6	-0.02	-91.926	-12.253
12.7	-0.022	-90.155	-10.888
12.8	-0.023	-89.051	-10.645
12.9	-0.024	-87.995	-10.057
13	-0.024	-87.761	-10.737
13.1	-0.024	-87.53	-11.171
13.2	-0.023	-88.091	-11.198
13.3	-0.023	-90.101	-12.219
13.4	-0.022	-90.926	-13.045
13.5	-0.021	-92.119	-13.448
13.6	-0.02	-93.648	-13.797
13.7	-0.02	-92.331	-14.277
13.8	-0.02	-92.057	-14.112
13.9	-0.02	-92.278	-13.46
14	-0.021	-92.449	-12.264
14.1	-0.022	-90.675	-11.364
14.2	-0.023	-89.363	-9.447
14.3	-0.025	-87.757	-8.136
14.4	-0.026	-87.351	-6.223
14.5	-0.028	-88.695	-2.172
14.6	-0.031	-89.162	3.497
14.7	-0.034	-86.629	8.09
14.8	-0.036	-85.365	10.118
14.9	-0.038	-83.493	11.568
15	-0.039	-83.508	13.013
15.1	-0.04	-83.227	14.656
15.2	-0.039	-82.772	16.912
15.3	-0.04	-81.924	20.917
15.4	-0.041	-80.855	23.116
15.5	-0.042	-79.652	26.323
15.6	-0.045	-78.601	31.59
15.7	-0.047	-77.902	35.083
15.8	-0.048	-77.219	37.111
15.9	-0.049	-76.329	38.642
16	-0.051	-74.438	40.499
16.1	-0.052	-72.521	42.817
16.2	-0.054	-70.576	45.87
16.3	-0.057	-66.596	52.16
16.4	-0.061	-65.034	58.226
16.5	-0.066	-67.933	56.864
16.6	-0.07	-71.288	53.296
16.7	-0.073	-72.974	49.548
16.8	-0.077	-73.724	46.789
16.9	-0.08	-74.371	44.742
17	-0.082	-74.983	43.763
17.1	-0.083	-75.434	43.012
17.2	-0.084	-75.876	42.218
17.3	-0.085	-76.234	41.24
17.4	-0.085	-76.552	40.187
17.5	-0.085	-76.813	39.098
17.6	-0.086	-76.95	37.919
17.7	-0.086	-76.786	36.87
17.8	-0.087	-76.57	35.729
17.9	-0.087	-76.101	34.341
18	-0.088	-75.628	32.97
18.1	-0.089	-63.667	35.149
18.2	-0.09	-59.342	35.149
18.3	-0.091	-59.184	34.014
18.4	-0.092	-58.96	32.754
18.5	-0.093	-56.611	32.403
18.6	-0.094	-54.872	32.095
18.7	-0.095	-51.322	32.234
18.8	-0.096	-50.438	31.619
18.9	-0.096	-48.068	31.651
19	-0.097	-47.31	31.02
19.1	-0.097	-45.62	30.506
19.2	-0.097	-44.146	29.919
19.3	-0.097	-42.759	29.3
19.4	-0.096	-41.528	28.597
19.5	-0.096	-40.545	27.835
19.6	-0.096	-39.262	26.983
19.7	-0.096	-38.382	26.131
19.8	-0.095	-37.538	25.289
19.9	-0.096	-36.775	24.375
20	-0.096	-35.995	23.555
20.1	-0.096	-35.058	22.922
20.2	-0.097	-34.048	22.346
20.3	-0.098	-32.992	21.925
20.4	-0.099	-31.631	21.8
20.5	-0.1	-30.63	21.884
20.6	-0.102	-29.707	22.047
20.7	-0.103	-28.497	22.207
20.8	-0.103	-27.117	22.298
20.9	-0.104	-25.367	22.351
21	-0.104	-23.752	22.316
21.1	-0.104	-22.242	22.257
21.2	-0.104	-20.703	22.18
21.3	-0.104	-19.371	22.097
21.4	-0.103	-17.979	21.907
21.5	-0.102	-16.542	21.627
21.6	-0.101	-15.084	20.98
